<svg xmlns="http://www.w3.org/2000/svg" version="1.1" xmlns:xlink="http://www.w3.org/1999/xlink" xmlns:svgjs="http://svgjs.dev/svgjs" width="800" height="800" preserveAspectRatio="none" viewBox="0 0 800 800"><g mask="url(&quot;#SvgjsMask1097&quot;)" fill="none"><rect width="800" height="800" x="0" y="0" fill="rgba(175, 203, 221, 1)"></rect><path d="M0,342.258C68.628,354.41,142.511,350.459,203.185,316.162C265.305,281.048,318.371,222.362,334.908,152.947C350.669,86.787,308.173,23.604,288.381,-41.463C271.799,-95.976,268.161,-157.117,228.228,-197.761C189.139,-237.546,126.564,-234.961,75.727,-257.903C14.173,-285.681,-34.456,-351.744,-101.799,-346.694C-170.256,-341.561,-227.113,-287.356,-267.9,-232.137C-307.07,-179.108,-319.673,-112.33,-323.525,-46.516C-327.14,15.252,-318.744,77.706,-289.218,132.081C-260.844,184.334,-209.766,216.603,-161.666,251.558C-110.647,288.634,-62.102,331.262,0,342.258" fill="#75a5c4"></path><path d="M800 1178.813C869.6 1182.173 923.096 1116.917 971.387 1066.683 1011.888 1024.552 1026.239 967.491 1053.062 915.569 1081.561 860.405 1133.056 814.067 1133.965 751.983 1134.9180000000001 686.9110000000001 1095.011 629.967 1058.027 576.418 1017.297 517.4449999999999 980.552 436.564 909.52 427.011 836.921 417.247 790.535 507.929 721.043 531.0989999999999 655.486 552.957 572.762 512.884 519.5899999999999 557.023 466.292 601.266 451.019 681.581 456.589 750.625 461.738 814.447 515.203 860.159 548.458 914.875 577.2860000000001 962.306 600.636 1010.453 638.928 1050.632 687.245 1101.33 730.046 1175.436 800 1178.813" fill="#e9f1f6"></path></g><defs><mask id="SvgjsMask1097"><rect width="800" height="800" fill="#ffffff"></rect></mask></defs></svg>