<?xml version="1.0" standalone="no"?>
<!DOCTYPE svg PUBLIC "-//W3C//DTD SVG 20010904//EN"
 "http://www.w3.org/TR/2001/REC-SVG-20010904/DTD/svg10.dtd">
<svg version="1.0" xmlns="http://www.w3.org/2000/svg"
 width="260.000000pt" height="260.000000pt" viewBox="0 0 260.000000 260.000000"
 preserveAspectRatio="xMidYMid meet">
<metadata>
Created by potrace 1.14, written by Peter Selinger 2001-2017
</metadata>
<g transform="translate(0.000000,260.000000) scale(0.100000,-0.100000)"
fill="#000000" stroke="none">
<path d="M581 2589 c-173 -34 -333 -134 -436 -271 -58 -77 -98 -162 -124 -265
-19 -74 -20 -110 -20 -753 0 -626 1 -681 19 -753 61 -254 256 -454 510 -524
60 -17 123 -18 770 -18 645 0 711 2 770 18 207 56 391 215 470 404 60 143 60
142 57 893 -2 377 -6 694 -9 705 -3 11 -11 40 -18 65 -63 236 -281 440 -530
496 -49 11 -1405 14 -1459 3z m927 -238 c36 -19 105 -83 157 -146 36 -43 111
-201 125 -263 15 -67 15 -158 0 -197 -23 -59 -180 -298 -237 -360 -49 -54
-178 -213 -240 -296 -218 -294 -237 -436 -82 -639 22 -30 54 -82 70 -115 26
-53 27 -61 14 -71 -59 -44 -452 158 -594 305 -158 163 -189 346 -89 510 38 61
146 180 287 316 357 343 433 432 480 560 23 61 28 130 20 295 -3 79 9 120 37
120 8 0 31 -9 52 -19z m590 -693 c20 -42 24 -70 24 -157 -1 -141 -33 -247
-106 -357 -63 -94 -97 -134 -240 -284 -110 -116 -171 -193 -229 -290 -48 -82
-93 -91 -140 -28 -18 24 -24 90 -13 143 8 40 54 144 95 213 38 66 169 248 202
282 83 86 303 378 329 438 29 66 58 80 78 40z m150 -739 c26 -40 15 -142 -21
-214 -41 -83 -110 -143 -287 -255 -174 -110 -226 -136 -245 -120 -42 35 -11
81 205 300 131 134 168 175 204 225 64 89 115 111 144 64z"/>
</g>
</svg>
