<svg width="23" height="24" viewBox="0 0 23 24" fill="none" xmlns="http://www.w3.org/2000/svg">
<path d="M11.8778 23.0284C10.0653 23.0284 8.4517 22.7813 7.03693 22.2869C5.62216 21.7983 4.42614 21.0795 3.44886 20.1307C2.47159 19.1875 1.72727 18.0341 1.21591 16.6705C0.704545 15.3068 0.448864 13.7557 0.448864 12.017C0.448864 10.3011 0.704545 8.74432 1.21591 7.34659C1.73295 5.94886 2.4858 4.75 3.47443 3.75C4.46307 2.74432 5.67045 1.97159 7.09659 1.43182C8.52841 0.892045 10.1591 0.622158 11.9886 0.622158C13.6818 0.622158 15.1932 0.869318 16.5227 1.36364C17.858 1.85795 18.9886 2.5625 19.9148 3.47727C20.8466 4.38636 21.554 5.46875 22.0369 6.72443C22.5256 7.97443 22.767 9.35795 22.7614 10.875C22.767 11.9205 22.6761 12.8807 22.4886 13.7557C22.3011 14.6307 22.0057 15.3949 21.6023 16.0483C21.2045 16.696 20.6818 17.2102 20.0341 17.5909C19.3864 17.9659 18.6023 18.179 17.6818 18.2301C17.0227 18.2813 16.4886 18.233 16.0795 18.0852C15.6705 17.9375 15.358 17.7187 15.142 17.429C14.9318 17.1335 14.7955 16.7898 14.733 16.3977H14.6307C14.4943 16.7386 14.2273 17.0483 13.8295 17.3267C13.4318 17.5994 12.946 17.8125 12.3722 17.9659C11.804 18.1136 11.1989 18.1676 10.5568 18.1278C9.88636 18.0881 9.25 17.9318 8.64773 17.6591C8.05114 17.3864 7.51989 16.9915 7.05398 16.4744C6.59375 15.9574 6.23011 15.3182 5.96307 14.5568C5.7017 13.7955 5.56818 12.9148 5.5625 11.9148C5.56818 10.9261 5.70739 10.0653 5.98011 9.33239C6.25852 8.59943 6.625 7.98295 7.07955 7.48295C7.53977 6.98295 8.05114 6.59091 8.61364 6.30682C9.17614 6.02273 9.74148 5.84091 10.3097 5.76136C10.9517 5.66477 11.5597 5.66477 12.1335 5.76136C12.7074 5.85795 13.1903 6.0142 13.5824 6.23011C13.9801 6.44602 14.2273 6.67898 14.3239 6.92898H14.4432V5.97443H17.1108V14.2926C17.1165 14.6847 17.2045 14.9886 17.375 15.2045C17.5455 15.4205 17.7756 15.5284 18.0653 15.5284C18.4574 15.5284 18.7841 15.3551 19.0455 15.0085C19.3125 14.6619 19.5114 14.1307 19.642 13.4148C19.7784 12.6989 19.8466 11.7869 19.8466 10.679C19.8466 9.6108 19.7045 8.6733 19.4205 7.86648C19.142 7.05398 18.75 6.36364 18.2443 5.79545C17.7443 5.22159 17.1619 4.75568 16.4972 4.39773C15.8324 4.03977 15.1108 3.77841 14.3324 3.61364C13.5597 3.44886 12.7642 3.36648 11.946 3.36648C10.5313 3.36648 9.29545 3.58239 8.23864 4.0142C7.18182 4.44034 6.30114 5.03977 5.59659 5.8125C4.89205 6.58523 4.36364 7.49148 4.01136 8.53125C3.66477 9.56534 3.48864 10.6932 3.48295 11.9148C3.48864 13.2614 3.67614 14.4545 4.04545 15.4943C4.42045 16.5284 4.97159 17.3977 5.69886 18.1023C6.42614 18.8068 7.32386 19.3409 8.39205 19.7045C9.46023 20.0682 10.6875 20.25 12.0739 20.25C12.7273 20.25 13.3665 20.2017 13.9915 20.1051C14.6165 20.0142 15.1818 19.9006 15.6875 19.7642C16.1932 19.6335 16.5994 19.5057 16.9062 19.3807L17.75 21.8523C17.392 22.0568 16.9063 22.2472 16.2926 22.4233C15.6847 22.6051 14.9972 22.75 14.2301 22.858C13.4688 22.9716 12.6847 23.0284 11.8778 23.0284ZM11.4858 15.3239C12.179 15.3239 12.7301 15.1903 13.1392 14.9233C13.554 14.6562 13.8494 14.2614 14.0256 13.7386C14.2074 13.2102 14.2926 12.5597 14.2812 11.7869C14.2756 11.1051 14.1875 10.5284 14.017 10.0568C13.8523 9.57955 13.5653 9.21875 13.1562 8.97443C12.7528 8.72443 12.1903 8.59943 11.4688 8.59943C10.8381 8.59943 10.3011 8.73295 9.85795 9C9.42045 9.26705 9.08523 9.64205 8.85227 10.125C8.625 10.6023 8.50852 11.1648 8.50284 11.8125C8.50852 12.4148 8.60511 12.9858 8.79261 13.5256C8.98011 14.0597 9.28977 14.4943 9.72159 14.8295C10.1534 15.1591 10.7415 15.3239 11.4858 15.3239Z" fill="#36383E"/>
</svg>
