<svg width="22" height="22" viewBox="0 0 22 22" fill="none" xmlns="http://www.w3.org/2000/svg">
<g clip-path="url(#clip0_7_13)">
<path d="M2.75 20.636C2.75 21.0173 2.882 21.34 3.146 21.604C3.41 21.868 3.74 22 4.136 22H17.886C18.2527 22 18.5753 21.868 18.854 21.604C19.1327 21.34 19.2647 21.0173 19.25 20.636V11C19.25 10.6187 19.118 10.296 18.854 10.032C18.59 9.768 18.2673 9.636 17.886 9.636V6.886C17.886 5.94733 17.7027 5.06 17.336 4.224C16.9693 3.388 16.478 2.65467 15.862 2.024C15.246 1.39333 14.5127 0.902 13.662 0.55C12.8113 0.198 11.924 0.0146667 11 0C9.75333 0 8.602 0.308 7.546 0.924C6.49 1.54 5.66133 2.376 5.06 3.432C4.45867 4.488 4.15067 5.63933 4.136 6.886V9.636C3.75467 9.636 3.42467 9.768 3.146 10.032C2.86733 10.296 2.73533 10.6187 2.75 11V20.636ZM5.5 19.25V12.386H16.5V19.25H5.5ZM6.886 9.636V6.886C6.886 5.742 7.282 4.76667 8.074 3.96C8.866 3.15333 9.84133 2.75 11 2.75C12.1587 2.75 13.134 3.15333 13.926 3.96C14.718 4.76667 15.1213 5.742 15.136 6.886V9.636H6.886Z" fill="#36383E"/>
</g>
<defs>
<clipPath id="clip0_7_13">
<rect width="22" height="22" fill="white"/>
</clipPath>
</defs>
</svg>
