<svg width="795" height="10" viewBox="0 0 795 10" fill="none" xmlns="http://www.w3.org/2000/svg">
<path d="M134.625 0.336586C131.735 0.719383 129.466 1.40763 127.732 2.0897C126.422 2.60366 125.364 3.11762 124.418 3.56731C123 4.24676 121.832 4.76346 120.728 5.06796C120.173 5.22371 119.636 5.33539 119.006 5.41903C118.376 5.50089 117.639 5.55542 116.663 5.55542C115.67 5.55542 114.925 5.49816 114.287 5.41452C113.187 5.26577 112.308 5.02293 111.24 4.60841C110.448 4.30035 109.599 3.89818 108.631 3.43697C107.177 2.74956 105.451 1.91007 102.943 1.19984C101.691 0.847694 100.243 0.537964 98.6226 0.326725C97.0003 0.113823 95.2178 -0.000707105 93.3237 0.000243352C91.3995 -0.000707105 89.5905 0.117269 87.9498 0.336468C85.0613 0.719264 82.7906 1.40751 81.0568 2.08958C79.7462 2.60354 78.6888 3.1175 77.7408 3.56719C76.325 4.24664 75.1563 4.76334 74.0544 5.06784C73.4993 5.2236 72.9625 5.33527 72.3326 5.41891C71.7026 5.50077 70.9673 5.55531 69.9889 5.55531C68.9964 5.55531 68.2532 5.49804 67.615 5.4144C66.5171 5.26565 65.638 5.02281 64.5705 4.60913C63.7787 4.30106 62.9299 3.8989 61.9636 3.43674C60.5073 2.75027 58.7835 1.90983 56.2737 1.1996C55.0241 0.847457 53.5738 0.537727 51.9531 0.326488C50.3327 0.113586 48.5502 -0.000944588 46.6553 5.8682e-06C44.7319 -0.000944588 42.9231 0.117031 41.2825 0.33623C38.3951 0.719026 36.1244 1.40728 34.3914 2.08935C33.0819 2.60331 32.0256 3.11822 31.0787 3.56695C29.6637 4.24724 28.4939 4.7631 27.392 5.0676C26.8369 5.22336 26.3013 5.33504 25.6724 5.41868C25.0424 5.50053 24.3071 5.55507 23.3306 5.55507C22.3381 5.55507 21.5938 5.4978 20.9578 5.41416C19.8588 5.26542 18.9789 5.02257 17.9111 4.60889C17.1212 4.30082 16.2735 3.89866 15.3053 3.4365C13.8498 2.75003 12.1252 1.90959 9.61756 1.19936C8.36659 0.847219 6.91738 0.537489 5.29618 0.32625C4.32551 0.199042 3.29729 0.106982 2.22184 0.0537956C0.995616 -0.00684711 0 0.995301 0 2.22302C0 3.45045 0.998765 4.41903 2.21735 4.56612C2.26992 4.57247 2.32174 4.57901 2.37288 4.58572C3.47291 4.7353 4.35173 4.97743 5.4195 5.39099C6.21028 5.69989 7.0582 6.10205 8.02534 6.56326C9.48084 7.24985 11.2054 8.09029 13.7142 8.80052C14.9638 9.15254 16.4122 9.46227 18.0347 9.67446C19.6562 9.88653 21.4377 10.0009 23.3315 9.99999C25.2548 10.0009 27.0625 9.8838 28.7042 9.66294C31.5928 9.28097 33.8623 8.59273 35.5964 7.91065C36.9059 7.39658 37.9622 6.88179 38.9094 6.43293C40.323 5.75264 41.4939 5.2369 42.5958 4.93145C43.1509 4.77652 43.6858 4.6639 44.3155 4.58121C44.9444 4.49935 45.6797 4.44565 46.6561 4.44482C47.6498 4.44565 48.393 4.50196 49.0312 4.5856C50.129 4.73518 51.01 4.97731 52.0778 5.39088C52.8677 5.69977 53.7143 6.10194 54.6825 6.56314C56.1391 7.24973 57.8626 8.09017 60.3725 8.8004C61.6221 9.15242 63.0707 9.46215 64.693 9.67434C66.3134 9.88641 68.0959 10.0008 69.9898 9.99988C71.9142 10.0008 73.723 9.88368 75.3636 9.66377C78.2522 9.28098 80.523 8.59356 82.2566 7.91065C83.5672 7.39658 84.6246 6.88262 85.5704 6.43293C86.9884 5.75348 88.1571 5.23773 89.259 4.9324C89.8139 4.77747 90.3506 4.66485 90.9806 4.58121C91.6109 4.49935 92.3459 4.44565 93.3242 4.44482C94.3168 4.44565 95.06 4.50196 95.6982 4.5856C96.798 4.73518 97.679 4.97731 98.7467 5.39088C99.5364 5.69977 100.385 6.10194 101.354 6.56398C102.808 7.24961 104.534 8.09017 107.044 8.8004C108.293 9.15242 109.744 9.46215 111.364 9.67434C112.987 9.88641 114.769 10.0008 116.663 9.99988C118.587 10.0008 120.394 9.88368 122.037 9.66377C124.925 9.28098 127.196 8.59356 128.93 7.91065C130.241 7.39658 131.298 6.88262 132.244 6.43376C133.662 5.75347 134.831 5.23761 135.935 4.93228C136.49 4.77736 137.026 4.66473 137.656 4.58204C137.698 4.57657 137.74 4.57123 137.783 4.56602C139.001 4.41716 140 3.45038 140 2.22299C140 0.995247 139.004 -0.00690793 137.778 0.0537012C136.673 0.108308 135.618 0.203903 134.625 0.336586Z" fill="white"/>
<path d="M274.625 0.336586C271.735 0.719383 269.466 1.40763 267.732 2.0897C266.422 2.60366 265.364 3.11762 264.418 3.56731C263 4.24676 261.832 4.76346 260.728 5.06796C260.173 5.22371 259.636 5.33539 259.006 5.41903C258.376 5.50089 257.639 5.55542 256.663 5.55542C255.67 5.55542 254.925 5.49816 254.287 5.41452C253.187 5.26577 252.308 5.02293 251.24 4.60841C250.448 4.30035 249.599 3.89818 248.631 3.43697C247.177 2.74956 245.451 1.91007 242.943 1.19984C241.691 0.847694 240.243 0.537964 238.623 0.326725C237 0.113823 235.218 -0.000707105 233.324 0.000243352C231.4 -0.000707105 229.59 0.117269 227.95 0.336468C225.061 0.719264 222.791 1.40751 221.057 2.08958C219.746 2.60354 218.689 3.1175 217.741 3.56719C216.325 4.24664 215.156 4.76334 214.054 5.06784C213.499 5.2236 212.963 5.33527 212.333 5.41891C211.703 5.50077 210.967 5.55531 209.989 5.55531C208.996 5.55531 208.253 5.49804 207.615 5.4144C206.517 5.26565 205.638 5.02281 204.571 4.60913C203.779 4.30106 202.93 3.8989 201.964 3.43674C200.507 2.75027 198.784 1.90983 196.274 1.1996C195.024 0.847457 193.574 0.537727 191.953 0.326488C190.333 0.113586 188.55 -0.000944588 186.655 5.8682e-06C184.732 -0.000944588 182.923 0.117031 181.283 0.33623C178.395 0.719026 176.124 1.40728 174.391 2.08935C173.082 2.60331 172.026 3.11822 171.079 3.56695C169.664 4.24724 168.494 4.7631 167.392 5.0676C166.837 5.22336 166.301 5.33504 165.672 5.41868C165.042 5.50053 164.307 5.55507 163.331 5.55507C162.338 5.55507 161.594 5.4978 160.958 5.41416C159.859 5.26542 158.979 5.02257 157.911 4.60889C157.121 4.30082 156.274 3.89866 155.305 3.4365C153.85 2.75003 152.125 1.90959 149.618 1.19936C148.367 0.847219 146.917 0.537489 145.296 0.32625C144.326 0.199042 143.297 0.106982 142.222 0.0537956C140.996 -0.00684711 140 0.995301 140 2.22302C140 3.45045 140.999 4.41903 142.217 4.56612C142.27 4.57247 142.322 4.57901 142.373 4.58572C143.473 4.7353 144.352 4.97743 145.419 5.39099C146.21 5.69989 147.058 6.10205 148.025 6.56326C149.481 7.24985 151.205 8.09029 153.714 8.80052C154.964 9.15254 156.412 9.46227 158.035 9.67446C159.656 9.88653 161.438 10.0009 163.331 9.99999C165.255 10.0009 167.062 9.8838 168.704 9.66294C171.593 9.28097 173.862 8.59273 175.596 7.91065C176.906 7.39658 177.962 6.88179 178.909 6.43293C180.323 5.75264 181.494 5.2369 182.596 4.93145C183.151 4.77652 183.686 4.6639 184.315 4.58121C184.944 4.49935 185.68 4.44565 186.656 4.44482C187.65 4.44565 188.393 4.50196 189.031 4.5856C190.129 4.73518 191.01 4.97731 192.078 5.39088C192.868 5.69977 193.714 6.10194 194.683 6.56314C196.139 7.24973 197.863 8.09017 200.372 8.8004C201.622 9.15242 203.071 9.46215 204.693 9.67434C206.313 9.88641 208.096 10.0008 209.99 9.99988C211.914 10.0008 213.723 9.88368 215.364 9.66377C218.252 9.28098 220.523 8.59356 222.257 7.91065C223.567 7.39658 224.625 6.88262 225.57 6.43293C226.988 5.75348 228.157 5.23773 229.259 4.9324C229.814 4.77747 230.351 4.66485 230.981 4.58121C231.611 4.49935 232.346 4.44565 233.324 4.44482C234.317 4.44565 235.06 4.50196 235.698 4.5856C236.798 4.73518 237.679 4.97731 238.747 5.39088C239.536 5.69977 240.385 6.10194 241.354 6.56398C242.808 7.24961 244.534 8.09017 247.044 8.8004C248.293 9.15242 249.744 9.46215 251.364 9.67434C252.987 9.88641 254.769 10.0008 256.663 9.99988C258.587 10.0008 260.394 9.88368 262.037 9.66377C264.925 9.28098 267.196 8.59356 268.93 7.91065C270.241 7.39658 271.298 6.88262 272.244 6.43376C273.662 5.75347 274.831 5.23761 275.935 4.93228C276.49 4.77736 277.026 4.66473 277.656 4.58204C277.698 4.57657 277.74 4.57123 277.783 4.56602C279.001 4.41716 280 3.45038 280 2.22299C280 0.995247 279.004 -0.00690793 277.778 0.0537012C276.673 0.108308 275.618 0.203903 274.625 0.336586Z" fill="white"/>
<path d="M226.625 0.336586C223.735 0.719383 221.466 1.40763 219.732 2.0897C218.422 2.60366 217.364 3.11762 216.418 3.56731C215 4.24676 213.832 4.76346 212.728 5.06796C212.173 5.22371 211.636 5.33539 211.006 5.41903C210.376 5.50089 209.639 5.55542 208.663 5.55542C207.67 5.55542 206.925 5.49816 206.287 5.41452C205.187 5.26577 204.308 5.02293 203.24 4.60841C202.448 4.30035 201.599 3.89818 200.631 3.43697C199.177 2.74956 197.451 1.91007 194.943 1.19984C193.691 0.847694 192.243 0.537964 190.623 0.326725C189 0.113823 187.218 -0.000707105 185.324 0.000243352C183.4 -0.000707105 181.59 0.117269 179.95 0.336468C177.061 0.719264 174.791 1.40751 173.057 2.08958C171.746 2.60354 170.689 3.1175 169.741 3.56719C168.325 4.24664 167.156 4.76334 166.054 5.06784C165.499 5.2236 164.963 5.33527 164.333 5.41891C163.703 5.50077 162.967 5.55531 161.989 5.55531C160.996 5.55531 160.253 5.49804 159.615 5.4144C158.517 5.26565 157.638 5.02281 156.571 4.60913C155.779 4.30106 154.93 3.8989 153.964 3.43674C152.507 2.75027 150.784 1.90983 148.274 1.1996C147.024 0.847457 145.574 0.537727 143.953 0.326488C142.333 0.113586 140.55 -0.000944588 138.655 5.8682e-06C136.732 -0.000944588 134.923 0.117031 133.283 0.33623C130.395 0.719026 128.124 1.40728 126.391 2.08935C125.082 2.60331 124.026 3.11822 123.079 3.56695C121.664 4.24724 120.494 4.7631 119.392 5.0676C118.837 5.22336 118.301 5.33504 117.672 5.41868C117.042 5.50053 116.307 5.55507 115.331 5.55507C114.338 5.55507 113.594 5.4978 112.958 5.41416C111.859 5.26542 110.979 5.02257 109.911 4.60889C109.121 4.30082 108.274 3.89866 107.305 3.4365C105.85 2.75003 104.125 1.90959 101.618 1.19936C100.367 0.847219 98.9174 0.537489 97.2962 0.32625C96.3255 0.199042 95.2973 0.106982 94.2218 0.0537956C92.9956 -0.00684711 92 0.995301 92 2.22302C92 3.45045 92.9988 4.41903 94.2173 4.56612C94.2699 4.57247 94.3217 4.57901 94.3729 4.58572C95.4729 4.7353 96.3517 4.97743 97.4195 5.39099C98.2103 5.69989 99.0582 6.10205 100.025 6.56326C101.481 7.24985 103.205 8.09029 105.714 8.80052C106.964 9.15254 108.412 9.46227 110.035 9.67446C111.656 9.88653 113.438 10.0009 115.331 9.99999C117.255 10.0009 119.062 9.8838 120.704 9.66294C123.593 9.28097 125.862 8.59273 127.596 7.91065C128.906 7.39658 129.962 6.88179 130.909 6.43293C132.323 5.75264 133.494 5.2369 134.596 4.93145C135.151 4.77652 135.686 4.6639 136.315 4.58121C136.944 4.49935 137.68 4.44565 138.656 4.44482C139.65 4.44565 140.393 4.50196 141.031 4.5856C142.129 4.73518 143.01 4.97731 144.078 5.39088C144.868 5.69977 145.714 6.10194 146.683 6.56314C148.139 7.24973 149.863 8.09017 152.372 8.8004C153.622 9.15242 155.071 9.46215 156.693 9.67434C158.313 9.88641 160.096 10.0008 161.99 9.99988C163.914 10.0008 165.723 9.88368 167.364 9.66377C170.252 9.28098 172.523 8.59356 174.257 7.91065C175.567 7.39658 176.625 6.88262 177.57 6.43293C178.988 5.75348 180.157 5.23773 181.259 4.9324C181.814 4.77747 182.351 4.66485 182.981 4.58121C183.611 4.49935 184.346 4.44565 185.324 4.44482C186.317 4.44565 187.06 4.50196 187.698 4.5856C188.798 4.73518 189.679 4.97731 190.747 5.39088C191.536 5.69977 192.385 6.10194 193.354 6.56398C194.808 7.24961 196.534 8.09017 199.044 8.8004C200.293 9.15242 201.744 9.46215 203.364 9.67434C204.987 9.88641 206.769 10.0008 208.663 9.99988C210.587 10.0008 212.394 9.88368 214.037 9.66377C216.925 9.28098 219.196 8.59356 220.93 7.91065C222.241 7.39658 223.298 6.88262 224.244 6.43376C225.662 5.75347 226.831 5.23761 227.935 4.93228C228.49 4.77736 229.026 4.66473 229.656 4.58204C229.698 4.57657 229.74 4.57123 229.783 4.56602C231.001 4.41716 232 3.45038 232 2.22299C232 0.995247 231.004 -0.00690793 229.778 0.0537012C228.673 0.108308 227.618 0.203903 226.625 0.336586Z" fill="white"/>
<path d="M366.625 0.336586C363.735 0.719383 361.466 1.40763 359.732 2.0897C358.422 2.60366 357.364 3.11762 356.418 3.56731C355 4.24676 353.832 4.76346 352.728 5.06796C352.173 5.22371 351.636 5.33539 351.006 5.41903C350.376 5.50089 349.639 5.55542 348.663 5.55542C347.67 5.55542 346.925 5.49816 346.287 5.41452C345.187 5.26577 344.308 5.02293 343.24 4.60841C342.448 4.30035 341.599 3.89818 340.631 3.43697C339.177 2.74956 337.451 1.91007 334.943 1.19984C333.691 0.847694 332.243 0.537964 330.623 0.326725C329 0.113823 327.218 -0.000707105 325.324 0.000243352C323.4 -0.000707105 321.59 0.117269 319.95 0.336468C317.061 0.719264 314.791 1.40751 313.057 2.08958C311.746 2.60354 310.689 3.1175 309.741 3.56719C308.325 4.24664 307.156 4.76334 306.054 5.06784C305.499 5.2236 304.963 5.33527 304.333 5.41891C303.703 5.50077 302.967 5.55531 301.989 5.55531C300.996 5.55531 300.253 5.49804 299.615 5.4144C298.517 5.26565 297.638 5.02281 296.571 4.60913C295.779 4.30106 294.93 3.8989 293.964 3.43674C292.507 2.75027 290.784 1.90983 288.274 1.1996C287.024 0.847457 285.574 0.537727 283.953 0.326488C282.333 0.113586 280.55 -0.000944588 278.655 5.8682e-06C276.732 -0.000944588 274.923 0.117031 273.283 0.33623C270.395 0.719026 268.124 1.40728 266.391 2.08935C265.082 2.60331 264.026 3.11822 263.079 3.56695C261.664 4.24724 260.494 4.7631 259.392 5.0676C258.837 5.22336 258.301 5.33504 257.672 5.41868C257.042 5.50053 256.307 5.55507 255.331 5.55507C254.338 5.55507 253.594 5.4978 252.958 5.41416C251.859 5.26542 250.979 5.02257 249.911 4.60889C249.121 4.30082 248.274 3.89866 247.305 3.4365C245.85 2.75003 244.125 1.90959 241.618 1.19936C240.367 0.847219 238.917 0.537489 237.296 0.32625C236.326 0.199042 235.297 0.106982 234.222 0.0537956C232.996 -0.00684711 232 0.995301 232 2.22302C232 3.45045 232.999 4.41903 234.217 4.56612C234.27 4.57247 234.322 4.57901 234.373 4.58572C235.473 4.7353 236.352 4.97743 237.419 5.39099C238.21 5.69989 239.058 6.10205 240.025 6.56326C241.481 7.24985 243.205 8.09029 245.714 8.80052C246.964 9.15254 248.412 9.46227 250.035 9.67446C251.656 9.88653 253.438 10.0009 255.331 9.99999C257.255 10.0009 259.062 9.8838 260.704 9.66294C263.593 9.28097 265.862 8.59273 267.596 7.91065C268.906 7.39658 269.962 6.88179 270.909 6.43293C272.323 5.75264 273.494 5.2369 274.596 4.93145C275.151 4.77652 275.686 4.6639 276.315 4.58121C276.944 4.49935 277.68 4.44565 278.656 4.44482C279.65 4.44565 280.393 4.50196 281.031 4.5856C282.129 4.73518 283.01 4.97731 284.078 5.39088C284.868 5.69977 285.714 6.10194 286.683 6.56314C288.139 7.24973 289.863 8.09017 292.372 8.8004C293.622 9.15242 295.071 9.46215 296.693 9.67434C298.313 9.88641 300.096 10.0008 301.99 9.99988C303.914 10.0008 305.723 9.88368 307.364 9.66377C310.252 9.28098 312.523 8.59356 314.257 7.91065C315.567 7.39658 316.625 6.88262 317.57 6.43293C318.988 5.75348 320.157 5.23773 321.259 4.9324C321.814 4.77747 322.351 4.66485 322.981 4.58121C323.611 4.49935 324.346 4.44565 325.324 4.44482C326.317 4.44565 327.06 4.50196 327.698 4.5856C328.798 4.73518 329.679 4.97731 330.747 5.39088C331.536 5.69977 332.385 6.10194 333.354 6.56398C334.808 7.24961 336.534 8.09017 339.044 8.8004C340.293 9.15242 341.744 9.46215 343.364 9.67434C344.987 9.88641 346.769 10.0008 348.663 9.99988C350.587 10.0008 352.394 9.88368 354.037 9.66377C356.925 9.28098 359.196 8.59356 360.93 7.91065C362.241 7.39658 363.298 6.88262 364.244 6.43376C365.662 5.75347 366.831 5.23761 367.935 4.93228C368.49 4.77736 369.026 4.66473 369.656 4.58204C369.698 4.57657 369.74 4.57123 369.783 4.56602C371.001 4.41716 372 3.45038 372 2.22299C372 0.995247 371.004 -0.00690793 369.778 0.0537012C368.673 0.108308 367.618 0.203903 366.625 0.336586Z" fill="white"/>
<path d="M414.625 0.336586C411.735 0.719383 409.466 1.40763 407.732 2.0897C406.422 2.60366 405.364 3.11762 404.418 3.56731C403 4.24676 401.832 4.76346 400.728 5.06796C400.173 5.22371 399.636 5.33539 399.006 5.41903C398.376 5.50089 397.639 5.55542 396.663 5.55542C395.67 5.55542 394.925 5.49816 394.287 5.41452C393.187 5.26577 392.308 5.02293 391.24 4.60841C390.448 4.30035 389.599 3.89818 388.631 3.43697C387.177 2.74956 385.451 1.91007 382.943 1.19984C381.691 0.847694 380.243 0.537964 378.623 0.326725C377 0.113823 375.218 -0.000707105 373.324 0.000243352C371.4 -0.000707105 369.59 0.117269 367.95 0.336468C365.061 0.719264 362.791 1.40751 361.057 2.08958C359.746 2.60354 358.689 3.1175 357.741 3.56719C356.325 4.24664 355.156 4.76334 354.054 5.06784C353.499 5.2236 352.963 5.33527 352.333 5.41891C351.703 5.50077 350.967 5.55531 349.989 5.55531C348.996 5.55531 348.253 5.49804 347.615 5.4144C346.517 5.26565 345.638 5.02281 344.571 4.60913C343.779 4.30106 342.93 3.8989 341.964 3.43674C340.507 2.75027 338.784 1.90983 336.274 1.1996C335.024 0.847457 333.574 0.537727 331.953 0.326488C330.333 0.113586 328.55 -0.000944588 326.655 5.8682e-06C324.732 -0.000944588 322.923 0.117031 321.283 0.33623C318.395 0.719026 316.124 1.40728 314.391 2.08935C313.082 2.60331 312.026 3.11822 311.079 3.56695C309.664 4.24724 308.494 4.7631 307.392 5.0676C306.837 5.22336 306.301 5.33504 305.672 5.41868C305.042 5.50053 304.307 5.55507 303.331 5.55507C302.338 5.55507 301.594 5.4978 300.958 5.41416C299.859 5.26542 298.979 5.02257 297.911 4.60889C297.121 4.30082 296.274 3.89866 295.305 3.4365C293.85 2.75003 292.125 1.90959 289.618 1.19936C288.367 0.847219 286.917 0.537489 285.296 0.32625C284.326 0.199042 283.297 0.106982 282.222 0.0537956C280.996 -0.00684711 280 0.995301 280 2.22302C280 3.45045 280.999 4.41903 282.217 4.56612C282.27 4.57247 282.322 4.57901 282.373 4.58572C283.473 4.7353 284.352 4.97743 285.419 5.39099C286.21 5.69989 287.058 6.10205 288.025 6.56326C289.481 7.24985 291.205 8.09029 293.714 8.80052C294.964 9.15254 296.412 9.46227 298.035 9.67446C299.656 9.88653 301.438 10.0009 303.331 9.99999C305.255 10.0009 307.062 9.8838 308.704 9.66294C311.593 9.28097 313.862 8.59273 315.596 7.91065C316.906 7.39658 317.962 6.88179 318.909 6.43293C320.323 5.75264 321.494 5.2369 322.596 4.93145C323.151 4.77652 323.686 4.6639 324.315 4.58121C324.944 4.49935 325.68 4.44565 326.656 4.44482C327.65 4.44565 328.393 4.50196 329.031 4.5856C330.129 4.73518 331.01 4.97731 332.078 5.39088C332.868 5.69977 333.714 6.10194 334.683 6.56314C336.139 7.24973 337.863 8.09017 340.372 8.8004C341.622 9.15242 343.071 9.46215 344.693 9.67434C346.313 9.88641 348.096 10.0008 349.99 9.99988C351.914 10.0008 353.723 9.88368 355.364 9.66377C358.252 9.28098 360.523 8.59356 362.257 7.91065C363.567 7.39658 364.625 6.88262 365.57 6.43293C366.988 5.75348 368.157 5.23773 369.259 4.9324C369.814 4.77747 370.351 4.66485 370.981 4.58121C371.611 4.49935 372.346 4.44565 373.324 4.44482C374.317 4.44565 375.06 4.50196 375.698 4.5856C376.798 4.73518 377.679 4.97731 378.747 5.39088C379.536 5.69977 380.385 6.10194 381.354 6.56398C382.808 7.24961 384.534 8.09017 387.044 8.8004C388.293 9.15242 389.744 9.46215 391.364 9.67434C392.987 9.88641 394.769 10.0008 396.663 9.99988C398.587 10.0008 400.394 9.88368 402.037 9.66377C404.925 9.28098 407.196 8.59356 408.93 7.91065C410.241 7.39658 411.298 6.88262 412.244 6.43376C413.662 5.75347 414.831 5.23761 415.935 4.93228C416.49 4.77736 417.026 4.66473 417.656 4.58204C417.698 4.57657 417.74 4.57123 417.783 4.56602C419.001 4.41716 420 3.45038 420 2.22299C420 0.995247 419.004 -0.00690793 417.778 0.0537012C416.673 0.108308 415.618 0.203903 414.625 0.336586Z" fill="white"/>
<path d="M554.625 0.336586C551.735 0.719383 549.466 1.40763 547.732 2.0897C546.422 2.60366 545.364 3.11762 544.418 3.56731C543 4.24676 541.832 4.76346 540.728 5.06796C540.173 5.22371 539.636 5.33539 539.006 5.41903C538.376 5.50089 537.639 5.55542 536.663 5.55542C535.67 5.55542 534.925 5.49816 534.287 5.41452C533.187 5.26577 532.308 5.02293 531.24 4.60841C530.448 4.30035 529.599 3.89818 528.631 3.43697C527.177 2.74956 525.451 1.91007 522.943 1.19984C521.691 0.847694 520.243 0.537964 518.623 0.326725C517 0.113823 515.218 -0.000707105 513.324 0.000243352C511.4 -0.000707105 509.59 0.117269 507.95 0.336468C505.061 0.719264 502.791 1.40751 501.057 2.08958C499.746 2.60354 498.689 3.1175 497.741 3.56719C496.325 4.24664 495.156 4.76334 494.054 5.06784C493.499 5.2236 492.963 5.33527 492.333 5.41891C491.703 5.50077 490.967 5.55531 489.989 5.55531C488.996 5.55531 488.253 5.49804 487.615 5.4144C486.517 5.26565 485.638 5.02281 484.571 4.60913C483.779 4.30106 482.93 3.8989 481.964 3.43674C480.507 2.75027 478.784 1.90983 476.274 1.1996C475.024 0.847457 473.574 0.537727 471.953 0.326488C470.333 0.113586 468.55 -0.000944588 466.655 5.8682e-06C464.732 -0.000944588 462.923 0.117031 461.283 0.33623C458.395 0.719026 456.124 1.40728 454.391 2.08935C453.082 2.60331 452.026 3.11822 451.079 3.56695C449.664 4.24724 448.494 4.7631 447.392 5.0676C446.837 5.22336 446.301 5.33504 445.672 5.41868C445.042 5.50053 444.307 5.55507 443.331 5.55507C442.338 5.55507 441.594 5.4978 440.958 5.41416C439.859 5.26542 438.979 5.02257 437.911 4.60889C437.121 4.30082 436.274 3.89866 435.305 3.4365C433.85 2.75003 432.125 1.90959 429.618 1.19936C428.367 0.847219 426.917 0.537489 425.296 0.32625C424.326 0.199042 423.297 0.106982 422.222 0.0537956C420.996 -0.00684711 420 0.995301 420 2.22302C420 3.45045 420.999 4.41903 422.217 4.56612C422.27 4.57247 422.322 4.57901 422.373 4.58572C423.473 4.7353 424.352 4.97743 425.419 5.39099C426.21 5.69989 427.058 6.10205 428.025 6.56326C429.481 7.24985 431.205 8.09029 433.714 8.80052C434.964 9.15254 436.412 9.46227 438.035 9.67446C439.656 9.88653 441.438 10.0009 443.331 9.99999C445.255 10.0009 447.062 9.8838 448.704 9.66294C451.593 9.28097 453.862 8.59273 455.596 7.91065C456.906 7.39658 457.962 6.88179 458.909 6.43293C460.323 5.75264 461.494 5.2369 462.596 4.93145C463.151 4.77652 463.686 4.6639 464.315 4.58121C464.944 4.49935 465.68 4.44565 466.656 4.44482C467.65 4.44565 468.393 4.50196 469.031 4.5856C470.129 4.73518 471.01 4.97731 472.078 5.39088C472.868 5.69977 473.714 6.10194 474.683 6.56314C476.139 7.24973 477.863 8.09017 480.372 8.8004C481.622 9.15242 483.071 9.46215 484.693 9.67434C486.313 9.88641 488.096 10.0008 489.99 9.99988C491.914 10.0008 493.723 9.88368 495.364 9.66377C498.252 9.28098 500.523 8.59356 502.257 7.91065C503.567 7.39658 504.625 6.88262 505.57 6.43293C506.988 5.75348 508.157 5.23773 509.259 4.9324C509.814 4.77747 510.351 4.66485 510.981 4.58121C511.611 4.49935 512.346 4.44565 513.324 4.44482C514.317 4.44565 515.06 4.50196 515.698 4.5856C516.798 4.73518 517.679 4.97731 518.747 5.39088C519.536 5.69977 520.385 6.10194 521.354 6.56398C522.808 7.24961 524.534 8.09017 527.044 8.8004C528.293 9.15242 529.744 9.46215 531.364 9.67434C532.987 9.88641 534.769 10.0008 536.663 9.99988C538.587 10.0008 540.394 9.88368 542.037 9.66377C544.925 9.28098 547.196 8.59356 548.93 7.91065C550.241 7.39658 551.298 6.88262 552.244 6.43376C553.662 5.75347 554.831 5.23761 555.935 4.93228C556.49 4.77736 557.026 4.66473 557.656 4.58204C557.698 4.57657 557.74 4.57123 557.783 4.56602C559.001 4.41716 560 3.45038 560 2.22299C560 0.995247 559.004 -0.00690793 557.778 0.0537012C556.673 0.108308 555.618 0.203903 554.625 0.336586Z" fill="white"/>
<path d="M694.625 0.336586C691.735 0.719383 689.466 1.40763 687.732 2.0897C686.422 2.60366 685.364 3.11762 684.418 3.56731C683 4.24676 681.832 4.76346 680.728 5.06796C680.173 5.22371 679.636 5.33539 679.006 5.41903C678.376 5.50089 677.639 5.55542 676.663 5.55542C675.67 5.55542 674.925 5.49816 674.287 5.41452C673.187 5.26577 672.308 5.02293 671.24 4.60841C670.448 4.30035 669.599 3.89818 668.631 3.43697C667.177 2.74956 665.451 1.91007 662.943 1.19984C661.691 0.847694 660.243 0.537964 658.623 0.326725C657 0.113823 655.218 -0.000707105 653.324 0.000243352C651.4 -0.000707105 649.59 0.117269 647.95 0.336468C645.061 0.719264 642.791 1.40751 641.057 2.08958C639.746 2.60354 638.689 3.1175 637.741 3.56719C636.325 4.24664 635.156 4.76334 634.054 5.06784C633.499 5.2236 632.963 5.33527 632.333 5.41891C631.703 5.50077 630.967 5.55531 629.989 5.55531C628.996 5.55531 628.253 5.49804 627.615 5.4144C626.517 5.26565 625.638 5.02281 624.571 4.60913C623.779 4.30106 622.93 3.8989 621.964 3.43674C620.507 2.75027 618.784 1.90983 616.274 1.1996C615.024 0.847457 613.574 0.537727 611.953 0.326488C610.333 0.113586 608.55 -0.000944588 606.655 5.8682e-06C604.732 -0.000944588 602.923 0.117031 601.283 0.33623C598.395 0.719026 596.124 1.40728 594.391 2.08935C593.082 2.60331 592.026 3.11822 591.079 3.56695C589.664 4.24724 588.494 4.7631 587.392 5.0676C586.837 5.22336 586.301 5.33504 585.672 5.41868C585.042 5.50053 584.307 5.55507 583.331 5.55507C582.338 5.55507 581.594 5.4978 580.958 5.41416C579.859 5.26542 578.979 5.02257 577.911 4.60889C577.121 4.30082 576.274 3.89866 575.305 3.4365C573.85 2.75003 572.125 1.90959 569.618 1.19936C568.367 0.847219 566.917 0.537489 565.296 0.32625C564.326 0.199042 563.297 0.106982 562.222 0.0537956C560.996 -0.00684711 560 0.995301 560 2.22302C560 3.45045 560.999 4.41903 562.217 4.56612C562.27 4.57247 562.322 4.57901 562.373 4.58572C563.473 4.7353 564.352 4.97743 565.419 5.39099C566.21 5.69989 567.058 6.10205 568.025 6.56326C569.481 7.24985 571.205 8.09029 573.714 8.80052C574.964 9.15254 576.412 9.46227 578.035 9.67446C579.656 9.88653 581.438 10.0009 583.331 9.99999C585.255 10.0009 587.062 9.8838 588.704 9.66294C591.593 9.28097 593.862 8.59273 595.596 7.91065C596.906 7.39658 597.962 6.88179 598.909 6.43293C600.323 5.75264 601.494 5.2369 602.596 4.93145C603.151 4.77652 603.686 4.6639 604.315 4.58121C604.944 4.49935 605.68 4.44565 606.656 4.44482C607.65 4.44565 608.393 4.50196 609.031 4.5856C610.129 4.73518 611.01 4.97731 612.078 5.39088C612.868 5.69977 613.714 6.10194 614.683 6.56314C616.139 7.24973 617.863 8.09017 620.372 8.8004C621.622 9.15242 623.071 9.46215 624.693 9.67434C626.313 9.88641 628.096 10.0008 629.99 9.99988C631.914 10.0008 633.723 9.88368 635.364 9.66377C638.252 9.28098 640.523 8.59356 642.257 7.91065C643.567 7.39658 644.625 6.88262 645.57 6.43293C646.988 5.75348 648.157 5.23773 649.259 4.9324C649.814 4.77747 650.351 4.66485 650.981 4.58121C651.611 4.49935 652.346 4.44565 653.324 4.44482C654.317 4.44565 655.06 4.50196 655.698 4.5856C656.798 4.73518 657.679 4.97731 658.747 5.39088C659.536 5.69977 660.385 6.10194 661.354 6.56398C662.808 7.24961 664.534 8.09017 667.044 8.8004C668.293 9.15242 669.744 9.46215 671.364 9.67434C672.987 9.88641 674.769 10.0008 676.663 9.99988C678.587 10.0008 680.394 9.88368 682.037 9.66377C684.925 9.28098 687.196 8.59356 688.93 7.91065C690.241 7.39658 691.298 6.88262 692.244 6.43376C693.662 5.75347 694.831 5.23761 695.935 4.93228C696.49 4.77736 697.026 4.66473 697.656 4.58204C697.698 4.57657 697.74 4.57123 697.783 4.56602C699.001 4.41716 700 3.45038 700 2.22299C700 0.995247 699.004 -0.00690793 697.778 0.0537012C696.673 0.108308 695.618 0.203903 694.625 0.336586Z" fill="white"/>
<path d="M649.625 0.336586C646.735 0.719383 644.466 1.40763 642.732 2.0897C641.422 2.60366 640.364 3.11762 639.418 3.56731C638 4.24676 636.832 4.76346 635.728 5.06796C635.173 5.22371 634.636 5.33539 634.006 5.41903C633.376 5.50089 632.639 5.55542 631.663 5.55542C630.67 5.55542 629.925 5.49816 629.287 5.41452C628.187 5.26577 627.308 5.02293 626.24 4.60841C625.448 4.30035 624.599 3.89818 623.631 3.43697C622.177 2.74956 620.451 1.91007 617.943 1.19984C616.691 0.847694 615.243 0.537964 613.623 0.326725C612 0.113823 610.218 -0.000707105 608.324 0.000243352C606.4 -0.000707105 604.59 0.117269 602.95 0.336468C600.061 0.719264 597.791 1.40751 596.057 2.08958C594.746 2.60354 593.689 3.1175 592.741 3.56719C591.325 4.24664 590.156 4.76334 589.054 5.06784C588.499 5.2236 587.963 5.33527 587.333 5.41891C586.703 5.50077 585.967 5.55531 584.989 5.55531C583.996 5.55531 583.253 5.49804 582.615 5.4144C581.517 5.26565 580.638 5.02281 579.571 4.60913C578.779 4.30106 577.93 3.8989 576.964 3.43674C575.507 2.75027 573.784 1.90983 571.274 1.1996C570.024 0.847457 568.574 0.537727 566.953 0.326488C565.333 0.113586 563.55 -0.000944588 561.655 5.8682e-06C559.732 -0.000944588 557.923 0.117031 556.283 0.33623C553.395 0.719026 551.124 1.40728 549.391 2.08935C548.082 2.60331 547.026 3.11822 546.079 3.56695C544.664 4.24724 543.494 4.7631 542.392 5.0676C541.837 5.22336 541.301 5.33504 540.672 5.41868C540.042 5.50053 539.307 5.55507 538.331 5.55507C537.338 5.55507 536.594 5.4978 535.958 5.41416C534.859 5.26542 533.979 5.02257 532.911 4.60889C532.121 4.30082 531.274 3.89866 530.305 3.4365C528.85 2.75003 527.125 1.90959 524.618 1.19936C523.367 0.847219 521.917 0.537489 520.296 0.32625C519.326 0.199042 518.297 0.106982 517.222 0.0537956C515.996 -0.00684711 515 0.995301 515 2.22302C515 3.45045 515.999 4.41903 517.217 4.56612C517.27 4.57247 517.322 4.57901 517.373 4.58572C518.473 4.7353 519.352 4.97743 520.419 5.39099C521.21 5.69989 522.058 6.10205 523.025 6.56326C524.481 7.24985 526.205 8.09029 528.714 8.80052C529.964 9.15254 531.412 9.46227 533.035 9.67446C534.656 9.88653 536.438 10.0009 538.331 9.99999C540.255 10.0009 542.062 9.8838 543.704 9.66294C546.593 9.28097 548.862 8.59273 550.596 7.91065C551.906 7.39658 552.962 6.88179 553.909 6.43293C555.323 5.75264 556.494 5.2369 557.596 4.93145C558.151 4.77652 558.686 4.6639 559.315 4.58121C559.944 4.49935 560.68 4.44565 561.656 4.44482C562.65 4.44565 563.393 4.50196 564.031 4.5856C565.129 4.73518 566.01 4.97731 567.078 5.39088C567.868 5.69977 568.714 6.10194 569.683 6.56314C571.139 7.24973 572.863 8.09017 575.372 8.8004C576.622 9.15242 578.071 9.46215 579.693 9.67434C581.313 9.88641 583.096 10.0008 584.99 9.99988C586.914 10.0008 588.723 9.88368 590.364 9.66377C593.252 9.28098 595.523 8.59356 597.257 7.91065C598.567 7.39658 599.625 6.88262 600.57 6.43293C601.988 5.75348 603.157 5.23773 604.259 4.9324C604.814 4.77747 605.351 4.66485 605.981 4.58121C606.611 4.49935 607.346 4.44565 608.324 4.44482C609.317 4.44565 610.06 4.50196 610.698 4.5856C611.798 4.73518 612.679 4.97731 613.747 5.39088C614.536 5.69977 615.385 6.10194 616.354 6.56398C617.808 7.24961 619.534 8.09017 622.044 8.8004C623.293 9.15242 624.744 9.46215 626.364 9.67434C627.987 9.88641 629.769 10.0008 631.663 9.99988C633.587 10.0008 635.394 9.88368 637.037 9.66377C639.925 9.28098 642.196 8.59356 643.93 7.91065C645.241 7.39658 646.298 6.88262 647.244 6.43376C648.662 5.75347 649.831 5.23761 650.935 4.93228C651.49 4.77736 652.026 4.66473 652.656 4.58204C652.698 4.57657 652.74 4.57123 652.783 4.56602C654.001 4.41716 655 3.45038 655 2.22299C655 0.995247 654.004 -0.00690793 652.778 0.0537012C651.673 0.108308 650.618 0.203903 649.625 0.336586Z" fill="white"/>
<path d="M506.625 0.336586C503.735 0.719383 501.466 1.40763 499.732 2.0897C498.422 2.60366 497.364 3.11762 496.418 3.56731C495 4.24676 493.832 4.76346 492.728 5.06796C492.173 5.22371 491.636 5.33539 491.006 5.41903C490.376 5.50089 489.639 5.55542 488.663 5.55542C487.67 5.55542 486.925 5.49816 486.287 5.41452C485.187 5.26577 484.308 5.02293 483.24 4.60841C482.448 4.30035 481.599 3.89818 480.631 3.43697C479.177 2.74956 477.451 1.91007 474.943 1.19984C473.691 0.847694 472.243 0.537964 470.623 0.326725C469 0.113823 467.218 -0.000707105 465.324 0.000243352C463.4 -0.000707105 461.59 0.117269 459.95 0.336468C457.061 0.719264 454.791 1.40751 453.057 2.08958C451.746 2.60354 450.689 3.1175 449.741 3.56719C448.325 4.24664 447.156 4.76334 446.054 5.06784C445.499 5.2236 444.963 5.33527 444.333 5.41891C443.703 5.50077 442.967 5.55531 441.989 5.55531C440.996 5.55531 440.253 5.49804 439.615 5.4144C438.517 5.26565 437.638 5.02281 436.571 4.60913C435.779 4.30106 434.93 3.8989 433.964 3.43674C432.507 2.75027 430.784 1.90983 428.274 1.1996C427.024 0.847457 425.574 0.537727 423.953 0.326488C422.333 0.113586 420.55 -0.000944588 418.655 5.8682e-06C416.732 -0.000944588 414.923 0.117031 413.283 0.33623C410.395 0.719026 408.124 1.40728 406.391 2.08935C405.082 2.60331 404.026 3.11822 403.079 3.56695C401.664 4.24724 400.494 4.7631 399.392 5.0676C398.837 5.22336 398.301 5.33504 397.672 5.41868C397.042 5.50053 396.307 5.55507 395.331 5.55507C394.338 5.55507 393.594 5.4978 392.958 5.41416C391.859 5.26542 390.979 5.02257 389.911 4.60889C389.121 4.30082 388.274 3.89866 387.305 3.4365C385.85 2.75003 384.125 1.90959 381.618 1.19936C380.367 0.847219 378.917 0.537489 377.296 0.32625C376.326 0.199042 375.297 0.106982 374.222 0.0537956C372.996 -0.00684711 372 0.995301 372 2.22302C372 3.45045 372.999 4.41903 374.217 4.56612C374.27 4.57247 374.322 4.57901 374.373 4.58572C375.473 4.7353 376.352 4.97743 377.419 5.39099C378.21 5.69989 379.058 6.10205 380.025 6.56326C381.481 7.24985 383.205 8.09029 385.714 8.80052C386.964 9.15254 388.412 9.46227 390.035 9.67446C391.656 9.88653 393.438 10.0009 395.331 9.99999C397.255 10.0009 399.062 9.8838 400.704 9.66294C403.593 9.28097 405.862 8.59273 407.596 7.91065C408.906 7.39658 409.962 6.88179 410.909 6.43293C412.323 5.75264 413.494 5.2369 414.596 4.93145C415.151 4.77652 415.686 4.6639 416.315 4.58121C416.944 4.49935 417.68 4.44565 418.656 4.44482C419.65 4.44565 420.393 4.50196 421.031 4.5856C422.129 4.73518 423.01 4.97731 424.078 5.39088C424.868 5.69977 425.714 6.10194 426.683 6.56314C428.139 7.24973 429.863 8.09017 432.372 8.8004C433.622 9.15242 435.071 9.46215 436.693 9.67434C438.313 9.88641 440.096 10.0008 441.99 9.99988C443.914 10.0008 445.723 9.88368 447.364 9.66377C450.252 9.28098 452.523 8.59356 454.257 7.91065C455.567 7.39658 456.625 6.88262 457.57 6.43293C458.988 5.75348 460.157 5.23773 461.259 4.9324C461.814 4.77747 462.351 4.66485 462.981 4.58121C463.611 4.49935 464.346 4.44565 465.324 4.44482C466.317 4.44565 467.06 4.50196 467.698 4.5856C468.798 4.73518 469.679 4.97731 470.747 5.39088C471.536 5.69977 472.385 6.10194 473.354 6.56398C474.808 7.24961 476.534 8.09017 479.044 8.8004C480.293 9.15242 481.744 9.46215 483.364 9.67434C484.987 9.88641 486.769 10.0008 488.663 9.99988C490.587 10.0008 492.394 9.88368 494.037 9.66377C496.925 9.28098 499.196 8.59356 500.93 7.91065C502.241 7.39658 503.298 6.88262 504.244 6.43376C505.662 5.75347 506.831 5.23761 507.935 4.93228C508.49 4.77736 509.026 4.66473 509.656 4.58204C509.698 4.57657 509.74 4.57123 509.783 4.56602C511.001 4.41716 512 3.45038 512 2.22299C512 0.995247 511.004 -0.00690793 509.778 0.0537012C508.673 0.108308 507.618 0.203903 506.625 0.336586Z" fill="white"/>
<path d="M789.625 0.336586C786.735 0.719383 784.466 1.40763 782.732 2.0897C781.422 2.60366 780.364 3.11762 779.418 3.56731C778 4.24676 776.832 4.76346 775.728 5.06796C775.173 5.22371 774.636 5.33539 774.006 5.41903C773.376 5.50089 772.639 5.55542 771.663 5.55542C770.67 5.55542 769.925 5.49816 769.287 5.41452C768.187 5.26577 767.308 5.02293 766.24 4.60841C765.448 4.30035 764.599 3.89818 763.631 3.43697C762.177 2.74956 760.451 1.91007 757.943 1.19984C756.691 0.847694 755.243 0.537964 753.623 0.326725C752 0.113823 750.218 -0.000707105 748.324 0.000243352C746.4 -0.000707105 744.59 0.117269 742.95 0.336468C740.061 0.719264 737.791 1.40751 736.057 2.08958C734.746 2.60354 733.689 3.1175 732.741 3.56719C731.325 4.24664 730.156 4.76334 729.054 5.06784C728.499 5.2236 727.963 5.33527 727.333 5.41891C726.703 5.50077 725.967 5.55531 724.989 5.55531C723.996 5.55531 723.253 5.49804 722.615 5.4144C721.517 5.26565 720.638 5.02281 719.571 4.60913C718.779 4.30106 717.93 3.8989 716.964 3.43674C715.507 2.75027 713.784 1.90983 711.274 1.1996C710.024 0.847457 708.574 0.537727 706.953 0.326488C705.333 0.113586 703.55 -0.000944588 701.655 5.8682e-06C699.732 -0.000944588 697.923 0.117031 696.283 0.33623C693.395 0.719026 691.124 1.40728 689.391 2.08935C688.082 2.60331 687.026 3.11822 686.079 3.56695C684.664 4.24724 683.494 4.7631 682.392 5.0676C681.837 5.22336 681.301 5.33504 680.672 5.41868C680.042 5.50053 679.307 5.55507 678.331 5.55507C677.338 5.55507 676.594 5.4978 675.958 5.41416C674.859 5.26542 673.979 5.02257 672.911 4.60889C672.121 4.30082 671.274 3.89866 670.305 3.4365C668.85 2.75003 667.125 1.90959 664.618 1.19936C663.367 0.847219 661.917 0.537489 660.296 0.32625C659.326 0.199042 658.297 0.106982 657.222 0.0537956C655.996 -0.00684711 655 0.995301 655 2.22302C655 3.45045 655.999 4.41903 657.217 4.56612C657.27 4.57247 657.322 4.57901 657.373 4.58572C658.473 4.7353 659.352 4.97743 660.419 5.39099C661.21 5.69989 662.058 6.10205 663.025 6.56326C664.481 7.24985 666.205 8.09029 668.714 8.80052C669.964 9.15254 671.412 9.46227 673.035 9.67446C674.656 9.88653 676.438 10.0009 678.331 9.99999C680.255 10.0009 682.062 9.8838 683.704 9.66294C686.593 9.28097 688.862 8.59273 690.596 7.91065C691.906 7.39658 692.962 6.88179 693.909 6.43293C695.323 5.75264 696.494 5.2369 697.596 4.93145C698.151 4.77652 698.686 4.6639 699.315 4.58121C699.944 4.49935 700.68 4.44565 701.656 4.44482C702.65 4.44565 703.393 4.50196 704.031 4.5856C705.129 4.73518 706.01 4.97731 707.078 5.39088C707.868 5.69977 708.714 6.10194 709.683 6.56314C711.139 7.24973 712.863 8.09017 715.372 8.8004C716.622 9.15242 718.071 9.46215 719.693 9.67434C721.313 9.88641 723.096 10.0008 724.99 9.99988C726.914 10.0008 728.723 9.88368 730.364 9.66377C733.252 9.28098 735.523 8.59356 737.257 7.91065C738.567 7.39658 739.625 6.88262 740.57 6.43293C741.988 5.75348 743.157 5.23773 744.259 4.9324C744.814 4.77747 745.351 4.66485 745.981 4.58121C746.611 4.49935 747.346 4.44565 748.324 4.44482C749.317 4.44565 750.06 4.50196 750.698 4.5856C751.798 4.73518 752.679 4.97731 753.747 5.39088C754.536 5.69977 755.385 6.10194 756.354 6.56398C757.808 7.24961 759.534 8.09017 762.044 8.8004C763.293 9.15242 764.744 9.46215 766.364 9.67434C767.987 9.88641 769.769 10.0008 771.663 9.99988C773.587 10.0008 775.394 9.88368 777.037 9.66377C779.925 9.28098 782.196 8.59356 783.93 7.91065C785.241 7.39658 786.298 6.88262 787.244 6.43376C788.662 5.75347 789.831 5.23761 790.935 4.93228C791.49 4.77736 792.026 4.66473 792.656 4.58204C792.698 4.57657 792.74 4.57123 792.783 4.56602C794.001 4.41716 795 3.45038 795 2.22299C795 0.995247 794.004 -0.00690793 792.778 0.0537012C791.673 0.108308 790.618 0.203903 789.625 0.336586Z" fill="white"/>
</svg>
